<svg xmlns="http://www.w3.org/2000/svg" version="1.1" xmlns:xlink="http://www.w3.org/1999/xlink" width="240" height="278"><svg xmlns="http://www.w3.org/2000/svg" version="1.1" xmlns:xlink="http://www.w3.org/1999/xlink" width="240" height="278"><svg width="240" height="278" viewBox="0 0 240 278" version="1.1" id="svg15" sodipodi:docname="logo.svg" inkscape:version="1.4 (e7c3feb1, 2024-10-09)" xmlns:inkscape="http://www.inkscape.org/namespaces/inkscape" xmlns:sodipodi="http://sodipodi.sourceforge.net/DTD/sodipodi-0.dtd" xmlns="http://www.w3.org/2000/svg" xmlns:svg="http://www.w3.org/2000/svg">
  <sodipodi:namedview id="namedview15" pagecolor="#ffffff" bordercolor="#000000" borderopacity="0.25" inkscape:showpageshadow="2" inkscape:pageopacity="0.0" inkscape:pagecheckerboard="0" inkscape:deskcolor="#d1d1d1" showgrid="false" inkscape:zoom="2.3083333" inkscape:cx="120" inkscape:cy="139.06137" inkscape:window-width="1200" inkscape:window-height="1021" inkscape:window-x="55" inkscape:window-y="31" inkscape:window-maximized="0" inkscape:current-layer="svg15"></sodipodi:namedview>
  <defs id="defs2"><style id="style1">
      @import url(&quot;https://fonts.googleapis.com/css2?family=Jost:wght@700&amp;display=swap&quot;);
    </style>
<linearGradient id="cardGrad" x1="0%" y1="0%" x2="100%" y2="100%">
  <stop offset="0%" style="stop-color:#fab255" id="stop1"></stop>
  <stop offset="100%" style="stop-color:#e8983d" id="stop2"></stop>
</linearGradient>

   
  
    
    
    
    
    
   </defs>
  <!-- Background hexagon -->
  <polygon points="120,10 220,70 220,190 120,250 20,190 20,70" fill="url(#cardGrad)" stroke="#d4842a" stroke-width="3" id="polygon2"></polygon>
  <g id="g2">
    <path class="fil1" d="m 103.60238,99.684329 1.49696,-1.49695 h 1.08461 c 0.069,0 0.13366,0.01109 0.18948,0.03278 0.0491,0.0191 0.0924,0.04635 0.12661,0.08128 0,0.006 1.9315,1.939041 2.13663,2.144161 0.19163,0.19161 0.44511,0.28733 0.69899,0.28732 0.25305,-8e-5 0.50603,-0.0959 0.69782,-0.28732 0.71414,-0.714125 1.43109,-1.425498 2.14066,-2.144161 0.0342,-0.03494 0.0776,-0.06217 0.12661,-0.08128 0.0558,-0.02171 0.12046,-0.03278 0.18947,-0.03278 h 1.08192 l 1.49695,1.49695 c 0.76098,0.760981 0.76098,2.006241 0,2.767241 l -1.49695,1.49693 h -1.08192 c -0.069,0 -0.13365,-0.0111 -0.18947,-0.0328 -0.0491,-0.0191 -0.0925,-0.0463 -0.12661,-0.0813 -0.70957,-0.71866 -1.42652,-1.43002 -2.14066,-2.14416 -0.19179,-0.19145 -0.44477,-0.28724 -0.69782,-0.2873 -0.25388,-3e-5 -0.50736,0.0957 -0.69899,0.2873 -0.20513,0.20513 -2.13663,2.13814 -2.13663,2.14416 -0.0342,0.0349 -0.0776,0.0622 -0.12661,0.0813 -0.0558,0.0217 -0.12046,0.0328 -0.18948,0.0328 h -1.08461 l -1.49696,-1.49693 c -0.76098,-0.761 -0.76098,-2.00626 0,-2.767241 z m 2.16699,-2.166984 2.18274,-2.182742 c 0.76101,-0.76101 2.00624,-0.76101 2.76725,0 l 2.18274,2.182742 h -0.41188 c -0.29299,0 -0.58751,0.106379 -0.79443,0.317525 -0.004,-0.0035 -1.95397,1.957553 -2.13408,2.137659 -0.0624,0.06194 -0.14435,0.09298 -0.22605,0.09298 -0.0812,0 -0.16282,-0.0312 -0.22527,-0.09362 -0.19816,-0.198147 -2.13164,-2.137352 -2.13202,-2.137015 -0.2069,-0.211146 -0.50142,-0.317525 -0.79442,-0.317525 z m 7.13273,7.101205 -2.18274,2.18273 c -0.76101,0.76099 -2.00624,0.76099 -2.76725,0 l -2.18274,-2.18273 h 0.41458 c 0.293,0 0.58752,-0.10638 0.79442,-0.31754 1.8e-4,1.8e-4 1.93386,-1.93885 2.13202,-2.13701 0.0625,-0.0624 0.1441,-0.0936 0.22527,-0.0936 0.0817,0 0.16363,0.031 0.22605,0.093 0.18011,0.1801 2.13051,2.1411 2.13408,2.13766 0.20692,0.21115 0.50144,0.31754 0.79443,0.31754 z" id="path1" style="clip-rule:evenodd;fill:#32bca9;fill-rule:evenodd;stroke-width:0.00146427;image-rendering:optimizeQuality;shape-rendering:geometricPrecision;text-rendering:geometricPrecision"></path>
    <g id="g3" transform="matrix(0.0074878,0,0,0.0074878,-26.266345,67.769154)" style="clip-rule:evenodd;fill-rule:evenodd;image-rendering:optimizeQuality;shape-rendering:geometricPrecision;text-rendering:geometricPrecision">
     <path class="fil2" d="m 24279.9,7796.36 c -130.98,130.75 -303.75,196.17 -476.57,196.22 -172.82,-0.05 -345.59,-65.47 -476.57,-196.22 -487.7,-487.7 -977.33,-973.52 -1461.92,-1464.32 -23.33,-23.86 -52.96,-42.46 -86.48,-55.51 -38.11,-14.82 -82.26,-22.39 -129.39,-22.39 h -1140.86 c -126.36,0 -228.8,-102.44 -228.8,-228.8 0,-126.35 102.44,-228.79 228.8,-228.79 h 1140.86 c 200.09,0 401.24,72.65 542.54,216.85 2.44,-2.35 1334.44,1336.88 1457.45,1459.88 42.63,42.3 98.58,63.5 154.37,63.5 55.8,0 111.75,-21.2 154.38,-63.5 123,-123 1455,-1462.23 1457.44,-1459.88 141.31,-144.2 342.45,-216.85 542.54,-216.85 h 1140.87 c 126.35,0 228.79,102.44 228.79,228.79 0,126.36 -102.44,228.8 -228.79,228.8 h -1140.87 c -47.13,0 -91.27,7.57 -129.39,22.39 -33.51,13.05 -63.15,31.65 -86.47,55.51 -484.59,490.8 -974.22,976.62 -1461.93,1464.32 z M 17732.56,6254.14 c -126.36,0 -228.8,-102.44 -228.8,-228.8 0,-126.35 102.44,-228.79 228.8,-228.79 459.96,0 877.98,188.04 1180.87,490.94 302.92,302.91 490.96,720.95 490.96,1180.88 v 2949.04 c 0,126.36 -102.44,228.8 -228.8,228.8 -126.36,0 -228.8,-102.44 -228.8,-228.8 V 7468.37 c 0,-333.65 -136.7,-637.18 -356.88,-857.36 -220.16,-220.17 -523.7,-356.87 -857.35,-356.87 z m -4320.17,4392.07 c -126.36,0 -228.8,-102.44 -228.8,-228.8 0,-126.36 102.44,-228.8 228.8,-228.8 h 2184.59 c 333.68,0 637.22,-136.68 857.38,-356.85 220.16,-220.16 356.85,-523.7 356.85,-857.38 V 7468.37 c 0,-333.68 -136.69,-637.21 -356.85,-857.38 -220.16,-220.16 -523.7,-356.85 -857.38,-356.85 h -2184.59 c -333.67,0 -637.19,136.67 -857.37,356.87 -220.17,220.16 -356.87,523.7 -356.87,857.36 v 5057.5 c 0,126.36 -102.44,228.8 -228.79,228.8 -126.36,0 -228.8,-102.44 -228.8,-228.8 v -5057.5 c 0,-459.96 188.04,-877.99 490.94,-1180.88 302.9,-302.92 720.96,-490.94 1180.89,-490.94 h 2184.59 c 459.97,0 878,188.02 1180.9,490.92 302.9,302.9 490.92,720.93 490.92,1180.9 v 1506.01 c 0,459.96 -188.02,878.01 -490.92,1180.9 -302.9,302.9 -720.93,490.93 -1180.9,490.93 z m 13686.17,0 c 126.35,0 228.79,-102.44 228.79,-228.8 0,-126.36 -102.44,-228.8 -228.79,-228.8 h -1140.87 c -47.13,0 -91.27,-7.56 -129.39,-22.39 -33.51,-13.04 -63.15,-31.65 -86.47,-55.51 -484.59,-490.8 -974.22,-976.61 -1461.93,-1464.32 -130.98,-130.75 -303.75,-196.17 -476.57,-196.21 -172.82,0.04 -345.59,65.46 -476.57,196.21 -487.7,487.71 -977.33,973.52 -1461.92,1464.32 -23.33,23.86 -52.96,42.47 -86.48,55.51 -38.11,14.83 -82.26,22.39 -129.39,22.39 h -1140.86 c -126.36,0 -228.8,102.44 -228.8,228.8 0,126.36 102.44,228.8 228.8,228.8 h 1140.86 c 200.09,0 401.24,-72.65 542.54,-216.86 2.44,2.35 1334.44,-1336.88 1457.45,-1459.88 42.63,-42.3 98.58,-63.5 154.37,-63.5 55.8,0 111.75,21.2 154.38,63.5 123,123 1455,1462.23 1457.44,1459.88 141.31,144.21 342.45,216.86 542.54,216.86 z" id="path2" style="fill:#606062;fill-rule:nonzero"></path>

     
    </g>
  </g>
  <!-- Card representation -->
  <!-- Card title bar -->
  <!-- Badge representations -->
  <!-- Field lines -->
  <!-- House icon mini -->
  <!-- Package name -->
  <!-- Tagline -->
</svg></svg><style>@media (prefers-color-scheme: light) { :root { filter: none; } }
@media (prefers-color-scheme: dark) { :root { filter: none; } }
</style></svg>